<?xml version="1.0" encoding="UTF-8"?>
<svg xmlns="http://www.w3.org/2000/svg" xmlns:xlink="http://www.w3.org/1999/xlink" width="500" zoomAndPan="magnify" viewBox="0 0 375 374.999991" height="500" preserveAspectRatio="xMidYMid meet" version="1.0">
    <defs>
        <clipPath id="id1">
            <path d="M 15.257812 20 L 298 20 L 298 353 L 15.257812 353 Z M 15.257812 20 " clip-rule="nonzero" />
        </clipPath>
        <clipPath id="id2">
            <path d="M 77 15.257812 L 359.507812 15.257812 L 359.507812 359.507812 L 77 359.507812 Z M 77 15.257812 " clip-rule="nonzero" />
        </clipPath>
    </defs>
    <g clip-path="url(#id1)">
        <path fill="#ffffff" d="M 235.890625 133.945312 L 287.199219 250.171875 L 297.597656 250.171875 L 241.285156 124.609375 L 230.703125 124.609375 L 133.4375 341.382812 C 69.90625 319.0625 24.230469 258.453125 24.230469 187.398438 C 24.230469 111.285156 76.613281 47.1875 147.234375 29.25 L 147.234375 20.039062 C 71.628906 38.179688 15.257812 106.3125 15.257812 187.390625 C 15.257812 262.097656 63.085938 325.835938 129.753906 349.59375 C 132.722656 350.648438 135.738281 351.625 138.789062 352.527344 C 138.796875 352.527344 138.8125 352.53125 138.816406 352.53125 L 142.503906 344.257812 C 142.488281 344.25 142.46875 344.25 142.453125 344.242188 Z M 235.890625 133.945312 " fill-opacity="1" fill-rule="nonzero" />
    </g>
    <g clip-path="url(#id2)">
        <path fill="#f7931e" d="M 187.390625 15.257812 C 176.871094 15.257812 166.589844 16.257812 156.585938 18.070312 L 156.585938 124.609375 L 77.167969 124.609375 L 77.167969 250.171875 L 165.953125 250.171875 L 165.953125 240.835938 L 86.667969 240.835938 L 86.667969 191.335938 L 160.214844 191.335938 L 160.214844 182.546875 L 86.667969 182.546875 L 86.667969 133.761719 L 165.953125 133.761719 L 165.953125 25.691406 C 172.976562 24.757812 180.121094 24.230469 187.398438 24.230469 C 277.363281 24.230469 350.558594 97.433594 350.558594 187.390625 C 350.558594 277.355469 277.355469 350.550781 187.398438 350.550781 C 175.140625 350.550781 163.203125 349.171875 151.714844 346.589844 L 147.992188 354.9375 C 160.65625 357.917969 173.839844 359.523438 187.398438 359.523438 C 282.304688 359.523438 359.527344 282.296875 359.527344 187.390625 C 359.527344 92.480469 282.296875 15.257812 187.390625 15.257812 Z M 187.390625 15.257812 " fill-opacity="1" fill-rule="nonzero" />
    </g>
</svg>