<svg xmlns="http://www.w3.org/2000/svg" xmlns:xlink="http://www.w3.org/1999/xlink" width="334" zoomAndPan="magnify" viewBox="0 0 250.5 30.000001" height="40" preserveAspectRatio="xMidYMid meet" version="1.0">
    <defs>
        <g />
        <clipPath id="id1">
            <path d="M 22.496094 0.136719 L 47 0.136719 L 47 29 L 22.496094 29 Z M 22.496094 0.136719 " clip-rule="nonzero" />
        </clipPath>
        <clipPath id="id2">
            <path d="M 27 0.136719 L 51.585938 0.136719 L 51.585938 29.03125 L 27 29.03125 Z M 27 0.136719 " clip-rule="nonzero" />
        </clipPath>
    </defs>
    <g fill="#7a8085" fill-opacity="1">
        <g transform="translate(128.044098, 19.784092)">
            <g>
                <path d="M 7.953125 -2.34375 L 2.875 -2.34375 L 1.875 0 L -0.078125 0 L 4.5 -10.15625 L 6.359375 -10.15625 L 10.9375 0 L 8.96875 0 Z M 7.328125 -3.828125 L 5.421875 -8.28125 L 3.515625 -3.828125 Z M 7.328125 -3.828125 " />
            </g>
        </g>
    </g>
    <g fill="#7a8085" fill-opacity="1">
        <g transform="translate(143.466064, 19.784092)">
            <g>
                <path d="M 9.265625 -1.59375 L 9.265625 0 L 0.59375 0 L 0.59375 -1.265625 L 6.578125 -8.5625 L 0.703125 -8.5625 L 0.703125 -10.15625 L 9.078125 -10.15625 L 9.078125 -8.890625 L 3.09375 -1.59375 Z M 9.265625 -1.59375 " />
            </g>
        </g>
    </g>
    <g fill="#7a8085" fill-opacity="1">
        <g transform="translate(157.640348, 19.784092)">
            <g>
                <path d="M 8.984375 -1.578125 L 8.984375 0 L 1.359375 0 L 1.359375 -10.15625 L 8.78125 -10.15625 L 8.78125 -8.578125 L 3.25 -8.578125 L 3.25 -5.9375 L 8.15625 -5.9375 L 8.15625 -4.390625 L 3.25 -4.390625 L 3.25 -1.578125 Z M 8.984375 -1.578125 " />
            </g>
        </g>
    </g>
    <g fill="#7a8085" fill-opacity="1">
        <g transform="translate(171.916187, 19.784092)">
            <g>
                <path d="M 10.65625 -10.15625 L 6.234375 0 L 4.375 0 L -0.078125 -10.15625 L 1.96875 -10.15625 L 5.359375 -2.328125 L 8.765625 -10.15625 Z M 10.65625 -10.15625 " />
            </g>
        </g>
    </g>
    <g fill="#7a8085" fill-opacity="1">
        <g transform="translate(187.047993, 19.784092)">
            <g>
                <path d="M 8.984375 -1.578125 L 8.984375 0 L 1.359375 0 L 1.359375 -10.15625 L 8.78125 -10.15625 L 8.78125 -8.578125 L 3.25 -8.578125 L 3.25 -5.9375 L 8.15625 -5.9375 L 8.15625 -4.390625 L 3.25 -4.390625 L 3.25 -1.578125 Z M 8.984375 -1.578125 " />
            </g>
        </g>
    </g>
    <g fill="#7a8085" fill-opacity="1">
        <g transform="translate(201.323833, 19.784092)">
            <g>
                <path d="M 1.359375 -10.15625 L 5.8125 -10.15625 C 6.894531 -10.15625 7.851562 -9.941406 8.6875 -9.515625 C 9.53125 -9.097656 10.179688 -8.503906 10.640625 -7.734375 C 11.109375 -6.972656 11.34375 -6.085938 11.34375 -5.078125 C 11.34375 -4.078125 11.109375 -3.191406 10.640625 -2.421875 C 10.179688 -1.648438 9.53125 -1.050781 8.6875 -0.625 C 7.851562 -0.207031 6.894531 0 5.8125 0 L 1.359375 0 Z M 5.71875 -1.59375 C 6.46875 -1.59375 7.125 -1.734375 7.6875 -2.015625 C 8.25 -2.304688 8.679688 -2.710938 8.984375 -3.234375 C 9.296875 -3.765625 9.453125 -4.378906 9.453125 -5.078125 C 9.453125 -5.773438 9.296875 -6.382812 8.984375 -6.90625 C 8.679688 -7.4375 8.25 -7.84375 7.6875 -8.125 C 7.125 -8.414062 6.46875 -8.5625 5.71875 -8.5625 L 3.25 -8.5625 L 3.25 -1.59375 Z M 5.71875 -1.59375 " />
            </g>
        </g>
    </g>
    <g fill="#7a8085" fill-opacity="1">
        <g transform="translate(217.862913, 19.784092)">
            <g>
                <path d="M 6.109375 0.140625 C 5.078125 0.140625 4.144531 -0.0820312 3.3125 -0.53125 C 2.476562 -0.976562 1.820312 -1.597656 1.34375 -2.390625 C 0.875 -3.191406 0.640625 -4.085938 0.640625 -5.078125 C 0.640625 -6.066406 0.875 -6.957031 1.34375 -7.75 C 1.820312 -8.550781 2.476562 -9.175781 3.3125 -9.625 C 4.144531 -10.082031 5.078125 -10.3125 6.109375 -10.3125 C 7.148438 -10.3125 8.082031 -10.082031 8.90625 -9.625 C 9.738281 -9.175781 10.390625 -8.554688 10.859375 -7.765625 C 11.335938 -6.972656 11.578125 -6.078125 11.578125 -5.078125 C 11.578125 -4.078125 11.335938 -3.179688 10.859375 -2.390625 C 10.390625 -1.597656 9.738281 -0.976562 8.90625 -0.53125 C 8.082031 -0.0820312 7.148438 0.140625 6.109375 0.140625 Z M 6.109375 -1.515625 C 6.785156 -1.515625 7.394531 -1.664062 7.9375 -1.96875 C 8.476562 -2.269531 8.90625 -2.691406 9.21875 -3.234375 C 9.53125 -3.785156 9.6875 -4.398438 9.6875 -5.078125 C 9.6875 -5.753906 9.53125 -6.363281 9.21875 -6.90625 C 8.90625 -7.457031 8.476562 -7.882812 7.9375 -8.1875 C 7.394531 -8.5 6.785156 -8.65625 6.109375 -8.65625 C 5.429688 -8.65625 4.820312 -8.5 4.28125 -8.1875 C 3.738281 -7.882812 3.3125 -7.457031 3 -6.90625 C 2.695312 -6.363281 2.546875 -5.753906 2.546875 -5.078125 C 2.546875 -4.398438 2.695312 -3.785156 3 -3.234375 C 3.3125 -2.691406 3.738281 -2.269531 4.28125 -1.96875 C 4.820312 -1.664062 5.429688 -1.515625 6.109375 -1.515625 Z M 6.109375 -1.515625 " />
            </g>
        </g>
    </g>
    <g fill="#040506" fill-opacity="1">
        <g transform="translate(63.178985, 19.198647)">
            <g>
                <path d="M 8.953125 -1.578125 L 8.953125 0 L 1.359375 0 L 1.359375 -10.125 L 8.75 -10.125 L 8.75 -8.546875 L 3.234375 -8.546875 L 3.234375 -5.921875 L 8.125 -5.921875 L 8.125 -4.375 L 3.234375 -4.375 L 3.234375 -1.578125 Z M 8.953125 -1.578125 " />
            </g>
        </g>
    </g>
    <g fill="#040506" fill-opacity="1">
        <g transform="translate(77.416016, 19.198647)">
            <g>
                <path d="M 10.625 -10.125 L 6.203125 0 L 4.359375 0 L -0.078125 -10.125 L 1.96875 -10.125 L 5.34375 -2.3125 L 8.734375 -10.125 Z M 10.625 -10.125 " />
            </g>
        </g>
    </g>
    <g fill="#040506" fill-opacity="1">
        <g transform="translate(92.50652, 19.198647)">
            <g>
                <path d="M 7.921875 -2.34375 L 2.859375 -2.34375 L 1.859375 0 L -0.078125 0 L 4.484375 -10.125 L 6.34375 -10.125 L 10.90625 0 L 8.9375 0 Z M 7.3125 -3.8125 L 5.390625 -8.25 L 3.5 -3.8125 Z M 7.3125 -3.8125 " />
            </g>
        </g>
    </g>
    <g fill="#040506" fill-opacity="1">
        <g transform="translate(107.886334, 19.198647)">
            <g>
                <path d="M 10.359375 -10.125 L 10.359375 0 L 8.8125 0 L 3.21875 -6.859375 L 3.21875 0 L 1.359375 0 L 1.359375 -10.125 L 2.90625 -10.125 L 8.5 -3.265625 L 8.5 -10.125 Z M 10.359375 -10.125 " />
            </g>
        </g>
    </g>
    <g clip-path="url(#id1)">
        <path fill="#040506" d="M 41.140625 10.167969 L 45.472656 19.988281 L 46.351562 19.988281 L 41.59375 9.378906 L 40.699219 9.378906 L 32.480469 27.695312 C 27.113281 25.808594 23.253906 20.6875 23.253906 14.683594 C 23.253906 8.25 27.679688 2.835938 33.648438 1.320312 L 33.648438 0.542969 C 27.257812 2.074219 22.496094 7.832031 22.496094 14.683594 C 22.496094 20.996094 26.535156 26.382812 32.171875 28.390625 C 32.421875 28.480469 32.675781 28.5625 32.933594 28.636719 C 32.933594 28.636719 32.933594 28.636719 32.9375 28.636719 L 33.246094 27.9375 C 33.246094 27.9375 33.246094 27.9375 33.242188 27.9375 Z M 41.140625 10.167969 " fill-opacity="1" fill-rule="nonzero" />
    </g>
    <g clip-path="url(#id2)">
        <path fill="#f7931e" d="M 37.039062 0.136719 C 36.152344 0.136719 35.28125 0.222656 34.4375 0.375 L 34.4375 9.378906 L 27.726562 9.378906 L 27.726562 19.988281 L 35.230469 19.988281 L 35.230469 19.199219 L 28.527344 19.199219 L 28.527344 15.015625 L 34.742188 15.015625 L 34.742188 14.273438 L 28.527344 14.273438 L 28.527344 10.152344 L 35.230469 10.152344 L 35.230469 1.019531 C 35.824219 0.941406 36.425781 0.894531 37.039062 0.894531 C 44.644531 0.894531 50.828125 7.082031 50.828125 14.683594 C 50.828125 22.285156 44.644531 28.46875 37.039062 28.46875 C 36.003906 28.46875 34.996094 28.355469 34.027344 28.136719 L 33.710938 28.839844 C 34.78125 29.09375 35.894531 29.230469 37.039062 29.230469 C 45.0625 29.230469 51.585938 22.703125 51.585938 14.683594 C 51.585938 6.664062 45.058594 0.136719 37.039062 0.136719 Z M 37.039062 0.136719 " fill-opacity="1" fill-rule="nonzero" />
    </g>
</svg>