<?xml version="1.0" encoding="UTF-8" standalone="no"?>
<!-- Created with Inkscape (http://www.inkscape.org/) -->

<svg
   width="60.972652mm"
   height="70.188927mm"
   viewBox="0 0 60.972652 70.188927"
   version="1.1"
   id="svg1"
   inkscape:version="1.3.2 (091e20ef0f, 2023-11-25)"
   sodipodi:docname="logoV2.svg"
   xmlns:inkscape="http://www.inkscape.org/namespaces/inkscape"
   xmlns:sodipodi="http://sodipodi.sourceforge.net/DTD/sodipodi-0.dtd"
   xmlns:xlink="http://www.w3.org/1999/xlink"
   xmlns="http://www.w3.org/2000/svg"
   xmlns:svg="http://www.w3.org/2000/svg">
  <sodipodi:namedview
     id="namedview1"
     pagecolor="#ffffff"
     bordercolor="#000000"
     borderopacity="0.25"
     inkscape:showpageshadow="2"
     inkscape:pageopacity="0.0"
     inkscape:pagecheckerboard="0"
     inkscape:deskcolor="#d1d1d1"
     inkscape:document-units="mm"
     inkscape:zoom="1"
     inkscape:cx="282.5"
     inkscape:cy="400.5"
     inkscape:window-width="1920"
     inkscape:window-height="1011"
     inkscape:window-x="0"
     inkscape:window-y="0"
     inkscape:window-maximized="1"
     inkscape:current-layer="layer2"
     showgrid="true">
    <inkscape:grid
       type="axonomgrid"
       id="grid138"
       units="px"
       originx="-51.859381"
       originy="-15.093663"
       spacingx="0"
       spacingy="2.6458333"
       empcolor="#0099e5"
       empopacity="0.30196078"
       color="#0099e5"
       opacity="0.14901961"
       empspacing="4"
       dotted="false"
       gridanglex="30"
       gridanglez="30"
       visible="true" />
  </sodipodi:namedview>
  <defs
     id="defs1">
    <linearGradient
       id="linearGradient11"
       inkscape:collect="always">
      <stop
         style="stop-color:#ffc100;stop-opacity:1;"
         offset="0"
         id="stop11" />
      <stop
         style="stop-color:#eb4511;stop-opacity:1;"
         offset="1"
         id="stop12" />
    </linearGradient>
    <linearGradient
       inkscape:collect="always"
       xlink:href="#linearGradient11"
       id="linearGradient12"
       x1="91.65435"
       y1="158.74998"
       x2="91.65435"
       y2="328.08331"
       gradientUnits="userSpaceOnUse" />
    <clipPath
       clipPathUnits="userSpaceOnUse"
       id="clipPath64">
      <path
         id="path64"
         style="fill:none;stroke:#000000;stroke-width:3.43958;stroke-linecap:round;stroke-linejoin:round;stroke-dasharray:none"
         inkscape:label="lface"
         d="m 41.244456,240.77082 50.409891,29.10415 m -50.409891,2.64584 50.409891,29.10416 M 41.244456,240.77082 v 31.74999 m 77.906194,-71.43749 22.91359,-13.22917 m -50.409893,-2.64583 -27.496302,15.875 m 54.992605,0 -27.496303,-15.875 m 0,31.75 27.496303,-15.875 m -54.955296,0 27.458993,15.875 m 50.409893,55.56249 v 26.45833 m -27.4963,-10.58333 v 26.45833 m 27.4963,-74.08332 v 31.74999 l -27.4963,15.875 v -31.74999 z m -50.409893,2.64583 73.323483,-42.33333 v 84.66665 l -73.323483,42.33334 z m 0,0 v 84.66666 L 18.33087,285.74997 v -84.66665 z m 0,-84.66666 -73.323477,42.33333 73.323477,42.33333 73.323483,-42.33333 z" />
    </clipPath>
  </defs>
  <g
     inkscape:groupmode="layer"
     id="layer2"
     inkscape:label="s3"
     style="fill:none"
     transform="translate(-51.85938,-15.093663)">
    <rect
       style="fill:url(#linearGradient12);stroke:#000000;stroke-width:0;stroke-linecap:round;stroke-linejoin:round;stroke-dasharray:none"
       id="rect11"
       width="146.64696"
       height="169.33331"
       x="18.33087"
       y="158.74998"
       clip-path="url(#clipPath64)"
       transform="matrix(0.40624997,0,0,0.40624997,45.111128,-48.69986)"
       inkscape:export-filename="logoV2_dark.svg"
       inkscape:export-xdpi="96"
       inkscape:export-ydpi="96"
       inkscape:label="gradient" />
    <path
       id="path11-5"
       style="fill:none;stroke:#000000;stroke-width:1.39733;stroke-linecap:round;stroke-linejoin:round;stroke-dasharray:none;stroke-opacity:1"
       inkscape:label="outlines"
       d="M 61.866686,49.113277 82.345704,60.936839 M 61.866686,62.011708 82.345704,73.835276 M 61.866686,49.113277 V 62.011708 M 93.51608,32.990231 102.82472,27.615882 M 82.345704,26.541013 71.175332,32.990231 m 22.340748,0 -11.170376,-6.449218 m 0,12.898437 11.170376,-6.449219 m -22.325591,0 11.155215,6.449219 M 102.82472,62.011708 V 72.760407 M 91.654354,68.460926 v 10.7487 M 102.82472,49.113277 V 62.011712 L 91.654354,68.46093 V 55.562497 Z M 82.345704,50.188146 112.13337,32.990231 V 67.386057 L 82.345704,84.583972 Z m 0,0 V 84.583972 L 52.558045,67.386057 V 32.990231 Z m 0,-34.395829 -29.787659,17.197914 29.787659,17.197915 29.787666,-17.197915 z" />
  </g>
</svg>
