<?xml version="1.0" encoding="UTF-8" standalone="no"?>
<!-- Created with Inkscape (http://www.inkscape.org/) -->

<svg
   width="150.08653mm"
   height="172.77275mm"
   viewBox="0 0 150.08653 172.77275"
   version="1.1"
   id="svg1"
   xmlns:xlink="http://www.w3.org/1999/xlink"
   xmlns="http://www.w3.org/2000/svg"
   xmlns:svg="http://www.w3.org/2000/svg">
  <defs
     id="defs1">
    <linearGradient
       id="linearGradient11">
      <stop
         style="stop-color:#ffc100;stop-opacity:1;"
         offset="0"
         id="stop11" />
      <stop
         style="stop-color:#eb4511;stop-opacity:1;"
         offset="1"
         id="stop12" />
    </linearGradient>
    <linearGradient
       xlink:href="#linearGradient11"
       id="linearGradient12"
       x1="91.65435"
       y1="158.74998"
       x2="91.65435"
       y2="328.08331"
       gradientUnits="userSpaceOnUse" />
    <clipPath
       clipPathUnits="userSpaceOnUse"
       id="clipPath64">
      <path
         id="path64"
         style="fill:none;stroke:#000000;stroke-width:3.43958;stroke-linecap:round;stroke-linejoin:round;stroke-dasharray:none"
         d="m 41.244456,240.77082 50.409891,29.10415 m -50.409891,2.64584 50.409891,29.10416 M 41.244456,240.77082 v 31.74999 m 77.906194,-71.43749 22.91359,-13.22917 m -50.409893,-2.64583 -27.496302,15.875 m 54.992605,0 -27.496303,-15.875 m 0,31.75 27.496303,-15.875 m -54.955296,0 27.458993,15.875 m 50.409893,55.56249 v 26.45833 m -27.4963,-10.58333 v 26.45833 m 27.4963,-74.08332 v 31.74999 l -27.4963,15.875 v -31.74999 z m -50.409893,2.64583 73.323483,-42.33333 v 84.66665 l -73.323483,42.33334 z m 0,0 v 84.66666 L 18.33087,285.74997 v -84.66665 z m 0,-84.66666 -73.323477,42.33333 73.323477,42.33333 73.323483,-42.33333 z" />
    </clipPath>
  </defs>
  <g
     id="layer2"
     style="fill:none"
     transform="translate(-37.233319,-7.540653)">
    <rect
       style="fill:url(#linearGradient12);stroke:#000000;stroke-width:0;stroke-linecap:round;stroke-linejoin:round;stroke-dasharray:none"
       id="rect11"
       width="146.64696"
       height="169.33331"
       x="18.33087"
       y="158.74998"
       clip-path="url(#clipPath64)"
       transform="translate(20.622233,-149.48957)" />
    <path
       id="path11-5"
       style="fill:none;stroke:#000000;stroke-width:3.43958;stroke-linecap:round;stroke-linejoin:round;stroke-dasharray:none"
       d="M 61.866686,91.281246 112.27658,120.3854 m -50.409894,2.64583 50.409894,29.10417 M 61.866686,91.281246 v 31.749984 m 77.906204,-71.437484 22.91359,-13.22917 m -50.4099,-2.64583 -27.496304,15.875 m 54.992614,0 -27.49631,-15.875 m 0,31.75 27.49631,-15.875 m -54.955304,0 27.458994,15.875 m 50.4099,55.562484 v 26.45834 m -27.4963,-10.58334 v 26.45834 m 27.4963,-74.083324 v 31.749994 l -27.4963,15.875 v -31.74999 z m -50.4099,2.64583 73.32349,-42.33333 V 136.2604 l -73.32349,42.33333 z m 0,0 V 178.59373 L 38.953106,136.2604 V 51.593746 Z m 0,-84.6666599 -73.323474,42.3333299 73.323474,42.33333 73.32349,-42.33333 z" />
  </g>
</svg>
